{
	"asset":{
		"generator":"Khronos glTF Blender I/O v4.0.44",
		"version":"2.0"
	},
	"scene":0,
	"scenes":[
		{
			"name":"Scene",
			"nodes":[
				0
			]
		}
	],
	"nodes":[
		{
			"mesh":0,
			"name":"Quest3HMD",
			"rotation":[
				0.7071068286895752,
				0,
				0,
				0.7071068286895752
			]
		}
	],
	"materials":[
		{
			"doubleSided":true,
			"name":"Universal Wire Mesh Generator",
			"pbrMetallicRoughness":{}
		}
	],
	"meshes":[
		{
			"name":"Quest3HMD",
			"primitives":[
				{
					"attributes":{
						"POSITION":0,
						"NORMAL":1,
						"TEXCOORD_0":2,
						"TEXCOORD_1":3
					},
					"indices":4,
					"material":0
				}
			]
		}
	],
	"accessors":[
		{
			"bufferView":0,
			"componentType":5126,
			"count":62465,
			"max":[
				97.06977081298828,
				128.0729522705078,
				84.702880859375
			],
			"min":[
				-97.17713928222656,
				-131.5850372314453,
				-85.80516815185547
			],
			"type":"VEC3"
		},
		{
			"bufferView":1,
			"componentType":5126,
			"count":62465,
			"type":"VEC3"
		},
		{
			"bufferView":2,
			"componentType":5126,
			"count":62465,
			"type":"VEC2"
		},
		{
			"bufferView":3,
			"componentType":5126,
			"count":62465,
			"type":"VEC2"
		},
		{
			"bufferView":4,
			"componentType":5123,
			"count":228780,
			"type":"SCALAR"
		}
	],
	"bufferViews":[
		{
			"buffer":0,
			"byteLength":749580,
			"byteOffset":0,
			"target":34962
		},
		{
			"buffer":0,
			"byteLength":749580,
			"byteOffset":749580,
			"target":34962
		},
		{
			"buffer":0,
			"byteLength":499720,
			"byteOffset":1499160,
			"target":34962
		},
		{
			"buffer":0,
			"byteLength":499720,
			"byteOffset":1998880,
			"target":34962
		},
		{
			"buffer":0,
			"byteLength":457560,
			"byteOffset":2498600,
			"target":34963
		}
	],
	"buffers":[
		{
			"byteLength":2956160,
			"uri":"quest3.bin"
		}
	]
}
